<svg width="70" height="76" viewBox="0 0 70 76" fill="none" xmlns="http://www.w3.org/2000/svg">
<path d="M0 10C0 4.47715 4.47715 0 10 0H60C65.5229 0 70 4.47715 70 10V66C70 71.5229 65.5229 76 60 76H10C4.47715 76 0 71.5229 0 66V10Z" fill="#E74040"/>
<path d="M19.4436 39.4198L26.984 46.9601L28.864 45.0668L21.3302 37.5331L19.4436 39.4198ZM48.663 29.0412L34.5306 43.1868L28.8815 37.5243L26.9748 39.4043L34.5306 46.9601L50.5563 30.9345L48.663 29.0412ZM43.0117 30.9324L41.1317 29.0391L32.6373 37.5335L34.5306 39.4135L43.0117 30.9324Z" fill="white"/>
</svg>
