<svg width="71" height="76" viewBox="0 0 71 76" fill="none" xmlns="http://www.w3.org/2000/svg">
<path d="M0.5 10C0.5 4.47715 4.97715 0 10.5 0H60.5C66.0229 0 70.5 4.47715 70.5 10V66C70.5 71.5229 66.0229 76 60.5 76H10.5C4.97715 76 0.5 71.5229 0.5 66V10Z" fill="#E74040"/>
<path d="M22.1667 33.2003C22.1664 31.2674 22.9433 29.4155 24.3225 28.0614C25.7017 26.7072 27.5675 25.9645 29.5001 26.0003C31.7898 25.9881 33.9747 26.9592 35.5001 28.6669C37.0254 26.9592 39.2103 25.9881 41.5001 26.0003C43.4326 25.9645 45.2984 26.7072 46.6777 28.0614C48.0569 29.4155 48.8337 31.2674 48.8334 33.2003C48.8334 40.3416 40.3281 45.7336 35.5001 50.0003C30.6827 45.6976 22.1667 40.3469 22.1667 33.2003Z" fill="white"/>
</svg>
